<svg xmlns="http://www.w3.org/2000/svg" xmlns:xlink="http://www.w3.org/1999/xlink" viewBox="0 0 761 631.72"><defs><style>.cls-1{fill:#2f3a49;}.cls-2{fill:#2f3a4a;}.cls-3{fill:#303b4a;}.cls-4{fill:#303b4b;}.cls-5{fill:#303b4c;}.cls-6{fill:#313c4c;}.cls-7{fill:#313c4d;}.cls-8{fill:#313c4e;}.cls-9{fill:#323d4e;}.cls-10{fill:#323d4f;}.cls-11{fill:#323d50;}.cls-12{fill:#333e50;}.cls-13{fill:#333e51;}.cls-14{fill:#333e52;}.cls-15{fill:#333e53;}.cls-16{fill:#343f53;}.cls-17{fill:#343f54;}.cls-18{fill:#343f55;}.cls-19{fill:#354055;}.cls-20{fill:#354056;}.cls-21{fill:#354057;}.cls-22{fill:#364157;}.cls-23{fill:#364158;}.cls-24{fill:#364159;}.cls-25{fill:#374259;}.cls-26{fill:#37425a;}.cls-27{fill:url(#linear-gradient);}.cls-28,.cls-30{fill:#fde7e2;}.cls-29{fill:#fdcfbe;}.cls-30{font-size:205.84px;font-family:GoodDog-Cool, GoodDog;letter-spacing:0.14em;}.cls-31{letter-spacing:0.12em;}.cls-32{letter-spacing:0.12em;}.cls-33{letter-spacing:0.15em;}.cls-34{letter-spacing:0.15em;}.cls-35{letter-spacing:0.1em;}.cls-36{fill:none;stroke:#fdcfbe;stroke-linecap:round;stroke-linejoin:round;stroke-width:11px;}</style><linearGradient id="linear-gradient" x1="372" y1="324.41" x2="372" y2="505.68" gradientUnits="userSpaceOnUse"><stop offset="0" stop-color="#37425a"/><stop offset="0.49" stop-color="#354056"/><stop offset="1" stop-color="#2f3a49"/><stop offset="1" stop-color="#2f3a49"/></linearGradient></defs><title>education</title><g id="Layer_2" data-name="Layer 2"><g id="architecture"><path class="cls-1" d="M698.5,483.5l-1.61.65q-181,73.77-362.09,147.57L49.21,434.84,405.8,314.1Z"/><path class="cls-1" d="M698.5,483l-1.61.66L334.8,631.2,49.21,434.33,405.8,313.59Z"/><path class="cls-2" d="M698.5,482.47l-1.61.66L334.8,630.69,49.21,433.82,405.8,313.08Z"/><path class="cls-3" d="M698.5,482l-1.61.66L334.8,630.18,49.21,433.3,405.8,312.57Z"/><path class="cls-4" d="M698.5,481.45l-1.61.65q-181,73.78-362.09,147.57L49.21,432.79,405.8,312.06Z"/><path class="cls-4" d="M698.5,480.94l-1.61.65L334.8,629.15,49.21,432.28,405.8,311.54Z"/><path class="cls-4" d="M698.5,480.42l-1.61.66L334.8,628.64,49.21,431.77,405.8,311Z"/><path class="cls-5" d="M698.5,479.91l-1.61.66L334.8,628.13,49.21,431.26,405.8,310.52Z"/><path class="cls-6" d="M698.5,479.4l-1.61.66q-181,73.77-362.09,147.56L49.21,430.74,405.8,310Z"/><path class="cls-7" d="M698.5,478.89l-1.61.65q-181,73.77-362.09,147.57L49.21,430.23,405.8,309.49Z"/><path class="cls-7" d="M698.5,478.38l-1.61.65L334.8,626.59,49.21,429.72,405.8,309Z"/><path class="cls-8" d="M698.5,477.86l-1.61.66L334.8,626.08,49.21,429.21,405.8,308.47Z"/><path class="cls-8" d="M698.5,477.35l-1.61.66L334.8,625.57,49.21,428.69,405.8,308Z"/><path class="cls-9" d="M698.5,476.84l-1.61.65q-181,73.78-362.09,147.57L49.21,428.18,405.8,307.45Z"/><path class="cls-10" d="M698.5,476.33l-1.61.65L334.8,624.54,49.21,427.67,405.8,306.93Z"/><path class="cls-10" d="M698.5,475.81l-1.61.66L334.8,624,49.21,427.16,405.8,306.42Z"/><path class="cls-11" d="M698.5,475.3l-1.61.66L334.8,623.52,49.21,426.65,405.8,305.91Z"/><path class="cls-11" d="M698.5,474.79l-1.61.66Q515.84,549.22,334.8,623L49.21,426.13,405.8,305.4Z"/><path class="cls-12" d="M698.5,474.28l-1.61.65Q515.84,548.7,334.8,622.5L49.21,425.62,405.8,304.88Z"/><path class="cls-13" d="M698.5,473.77l-1.61.65L334.8,622,49.21,425.11,405.8,304.37Z"/><path class="cls-13" d="M698.5,473.25l-1.61.66L334.8,621.47,49.21,424.6,405.8,303.86Z"/><path class="cls-14" d="M698.5,472.74l-1.61.66L334.8,621Q192,522.52,49.21,424.09L405.8,303.35Z"/><path class="cls-14" d="M698.5,472.23l-1.61.66q-181,73.77-362.09,147.56L49.21,423.57,405.8,302.84Z"/><path class="cls-15" d="M698.5,471.72l-1.61.65q-181,73.77-362.09,147.57L49.21,423.06,405.8,302.32Z"/><path class="cls-16" d="M698.5,471.2l-1.61.66L334.8,619.42,49.21,422.55,405.8,301.81Z"/><path class="cls-16" d="M698.5,470.69l-1.61.66L334.8,618.91,49.21,422,405.8,301.3Z"/><path class="cls-17" d="M698.5,470.18l-1.61.66q-181,73.77-362.09,147.56L49.21,421.52,405.8,300.79Z"/><path class="cls-17" d="M698.5,469.67l-1.61.65q-181,73.79-362.09,147.57L49.21,421,405.8,300.27Z"/><path class="cls-18" d="M698.5,469.16l-1.61.65L334.8,617.37,49.21,420.5,405.8,299.76Z"/><path class="cls-19" d="M698.5,468.64l-1.61.66L334.8,616.86,49.21,420,405.8,299.25Z"/><path class="cls-19" d="M698.5,468.13l-1.61.66L334.8,616.35Q192,517.91,49.21,419.48L405.8,298.74Z"/><path class="cls-20" d="M698.5,467.62l-1.61.66q-181,73.77-362.09,147.56L49.21,419,405.8,298.23Z"/><path class="cls-20" d="M698.5,467.11l-1.61.65q-181,73.77-362.09,147.57L49.21,418.45,405.8,297.71Z"/><path class="cls-21" d="M698.5,466.59l-1.61.66L334.8,614.81,49.21,417.94,405.8,297.2Z"/><path class="cls-22" d="M698.5,466.08l-1.61.66L334.8,614.3,49.21,417.43,405.8,296.69Z"/><path class="cls-23" d="M698.5,465.57l-1.61.66Q515.84,540,334.8,613.79L49.21,416.91,405.8,296.18Z"/><path class="cls-23" d="M698.5,465.06l-1.61.65q-181,73.79-362.09,147.57L49.21,416.4,405.8,295.67Z"/><path class="cls-23" d="M698.5,464.55l-1.61.65L334.8,612.76,49.21,415.89,405.8,295.15Z"/><path class="cls-24" d="M698.5,464l-1.61.66L334.8,612.25,49.21,415.38,405.8,294.64Z"/><path class="cls-25" d="M698.5,463.52l-1.61.66L334.8,611.74,49.21,414.87,405.8,294.13Z"/><path class="cls-26" d="M698.5,463l-1.61.66q-181,73.77-362.09,147.56L49.21,414.35,405.8,293.62Z"/><path class="cls-26" d="M698.5,462.5l-1.61.65q-181,73.77-362.09,147.57L49.21,413.84,405.8,293.1Z"/><path class="cls-27" d="M226,324.41V453c0,29.1,65.37,52.69,146,52.69S518,482.09,518,453V324.41Z"/><path class="cls-28" d="M518,324.41c0,15.46-18.46,29.36-47.85,39-25.92,8.5-60.36,13.68-98.15,13.68s-72.23-5.18-98.15-13.68c-29.39-9.64-47.85-23.54-47.85-39,0-29.1,65.37-52.69,146-52.69S518,295.31,518,324.41Z"/><path class="cls-29" d="M470.15,363.41c-25.92,8.5-60.36,13.68-98.15,13.68s-72.23-5.18-98.15-13.68c25.92-8.51,60.36-13.69,98.15-13.69S444.23,354.9,470.15,363.41Z"/><text class="cls-30" transform="translate(93.28 168.89)">D<tspan class="cls-31" x="106.91" y="0">E</tspan><tspan class="cls-32" x="205.98" y="0">S</tspan><tspan class="cls-33" x="321.91" y="0">I</tspan><tspan class="cls-34" x="385.33" y="0">G</tspan><tspan class="cls-35" x="496.36" y="0">N</tspan></text><line class="cls-36" x1="699" y1="45.2" x2="744" y2="20.2"/><line class="cls-36" x1="699.5" y1="95.7" x2="755.5" y2="93.7"/><line class="cls-36" x1="697.5" y1="143.7" x2="744.5" y2="169.7"/><line class="cls-36" x1="62" y1="45.2" x2="17" y2="20.2"/><line class="cls-36" x1="61.5" y1="95.7" x2="5.5" y2="93.7"/><line class="cls-36" x1="63.5" y1="143.7" x2="16.5" y2="169.7"/></g></g></svg>