<svg xmlns="http://www.w3.org/2000/svg" viewBox="0 0 691 575.02"><defs><style>.cls-1{fill:#455c7b;}.cls-2{fill:#587799;}.cls-3{fill:#374961;}.cls-4{fill:#2c3b4c;}.cls-5{fill:#4c6688;}.cls-6{fill:#25323f;}.cls-7{fill:#f7e4c4;}.cls-8{fill:#fc7970;}</style></defs><title>shanghai</title><g id="Layer_2" data-name="Layer 2"><g id="architecture"><rect class="cls-1" width="691" height="471"/><path class="cls-2" d="M573.53,307.21H546.62a13.21,13.21,0,0,1,0-26.42H574.8a13.21,13.21,0,1,0,0-26.42H435.65a13.21,13.21,0,1,1,0-26.42h17.06C459,228,464,222,464,214.74s-5.05-13.21-11.29-13.21H290.89c-6.24,0-11.29,5.91-11.29,13.21s5,13.21,11.29,13.21h14.42a13.21,13.21,0,0,1,0,26.42H176.72a13.21,13.21,0,1,0,0,26.42H196.1a13.21,13.21,0,1,1,0,26.42H137.47c-8,0-14.47,5.92-14.47,13.21s6.48,13.21,14.47,13.21H299.14a13.21,13.21,0,1,1,0,26.42H245.42a13.21,13.21,0,1,0,0,26.42H504.34a13.21,13.21,0,0,0,0-26.42h-6.16a13.21,13.21,0,1,1,0-26.42h75.35c8,0,14.47-5.91,14.47-13.21S581.52,307.21,573.53,307.21Z"/><rect class="cls-3" x="185" y="138" width="17.22" height="112"/><rect class="cls-3" x="230.93" y="138" width="16.07" height="112"/><rect class="cls-3" x="192.65" y="165" width="45.93" height="12"/><rect class="cls-3" x="192.65" y="189" width="45.93" height="12"/><rect class="cls-3" x="192.65" y="213" width="45.93" height="12"/><circle class="cls-4" cx="215" cy="306" r="72"/><path class="cls-3" d="M183.74,366.37,160.65,471H138.51a11.27,11.27,0,0,1,.25-2.87l23.5-106.5a11,11,0,0,1,21.48,4.74Z"/><path class="cls-3" d="M227,353l-.06,117.5c0,.17,0,.33,0,.49H205c0-.17,0-.33,0-.5L205,353a11,11,0,0,1,11-11h0A11,11,0,0,1,227,353Z"/><path class="cls-3" d="M298.48,471h-22.2L249.34,364.7a11,11,0,1,1,21.32-5.4l27.5,108.5A10.62,10.62,0,0,1,298.48,471Z"/><rect class="cls-4" x="208" width="15" height="80"/><circle class="cls-4" cx="216" cy="107" r="49"/><path class="cls-4" d="M426,471H358s-12-32.58-12-152.75c0-132.9,6-306.18,6-318.25,46,0,56,40.48,56,40.48Z"/><path class="cls-5" d="M352,0c46,0,56,41,56,41l9.74,236Z"/><rect class="cls-6" width="110" height="471"/><path class="cls-1" d="M84.47,73H26.53a1.16,1.16,0,0,1-1.17-.92L16.21,17.25A1.12,1.12,0,0,1,17.38,16H93.62a1.12,1.12,0,0,1,1.17,1.25L85.64,72.08A1.16,1.16,0,0,1,84.47,73Z"/><path class="cls-3" d="M0,0S31,174.77,40,234c8.39,55.24,13,237,13,237H0Z"/><path class="cls-3" d="M110,0S79,174.77,70,234c-8.39,55.24-13.17,237-13.17,237H110Z"/><path class="cls-7" d="M590.13,38.73a51.07,51.07,0,0,0-17.82,9.77,51,51,0,0,1,39.28,89.56,51,51,0,1,0-21.46-99.33Z"/><path id="skin" class="cls-7" d="M518.7,249.83s-9,8-10.35,15.7-.67,10.68-1.34,16.36c0,6.34-.67,13-3.67,17.36-2.56,3.69-5.29,5.94-7,8s1,5.68,5.67,9.35c4,3.67,3.34,11,3.51,13.19s.11,3.08,3,7.68,9.18,7.51,10.85,7.84c2.32.46,8.36,2,10.86,3.84,1.91,1.4,6,7,7,12s2.17,11.19,1.17,12.19c0,0-29.4,22.63-33.4,39.63s11,58,11,58h90L567.61,250Z"/><path id="hair" class="cls-8" d="M562.68,238.05c-48.67,0-49.33,15.18-50.4,19.16-1.11,4.13-2,15.72,8.43,28.54C542,312,513.34,359.54,520,381c18,58,44,55,33,111-7.46,38,23.52,84.23,53,83s50.15-44.67,44-79c-12-67-14.1-73.09-17-118-2-31-8.55-58.31-14-91C616,269,603,238,562.68,238.05Z"/></g></g></svg>